<svg width="131" height="24" viewBox="0 0 131 24" fill="none" xmlns="http://www.w3.org/2000/svg">
<path d="M13.3077 13.5L14.0336 9.15656H9.49444V6.33797C9.49444 5.14969 10.1285 3.99141 12.1615 3.99141H14.2251V0.293438C14.2251 0.293438 12.3524 0 10.562 0C6.82381 0 4.38037 2.08031 4.38037 5.84625V9.15656H0.225098V13.5H4.38037V24H9.49444V13.5H13.3077Z" fill="#E27D60"/>
<path d="M130.225 2.84684C129.343 3.32792 128.394 3.65297 127.398 3.79989C128.426 3.0429 129.196 1.85148 129.562 0.447947C128.596 1.15395 127.539 1.6509 126.436 1.91719C125.694 0.943152 124.712 0.297546 123.641 0.0806033C122.571 -0.13634 121.472 0.0875171 120.516 0.71742C119.559 1.34732 118.799 2.34803 118.352 3.56417C117.905 4.78031 117.798 6.14385 118.045 7.44309C116.088 7.32216 114.172 6.69618 112.424 5.60576C110.675 4.51535 109.133 2.98487 107.896 1.11366C107.473 2.0108 107.23 3.05097 107.23 4.15875C107.23 5.15601 107.429 6.13799 107.812 7.01757C108.194 7.89715 108.746 8.64713 109.42 9.20098C108.638 9.17037 107.874 8.91049 107.19 8.44295V8.52096C107.19 9.91965 107.583 11.2753 108.303 12.3579C109.023 13.4405 110.026 14.1833 111.14 14.4603C110.415 14.7018 109.654 14.7374 108.916 14.5644C109.231 15.7678 109.843 16.8203 110.668 17.5742C111.493 18.3282 112.489 18.7461 113.516 18.7692C111.772 20.4535 109.618 21.3672 107.4 21.3632C107.008 21.3633 106.615 21.3351 106.225 21.2786C108.476 23.0589 111.096 24.0037 113.772 24C122.83 24 127.782 14.7711 127.782 6.76698C127.782 6.50694 127.777 6.24429 127.768 5.98425C128.731 5.12738 129.562 4.0663 130.223 2.85074L130.225 2.84684Z" fill="#E27D60"/>
<path fill-rule="evenodd" clip-rule="evenodd" d="M75.2778 0.072C76.5575 0.0130909 76.9655 0 80.2251 0C83.4847 0 83.8927 0.0141818 85.1713 0.072C86.4498 0.129818 87.3226 0.333818 88.0862 0.629455C88.8858 0.931636 89.6113 1.404 90.2113 2.01491C90.8222 2.61382 91.2935 3.33818 91.5946 4.13891C91.8913 4.90255 92.0942 5.77527 92.1531 7.05164C92.212 8.33346 92.2251 8.74146 92.2251 12C92.2251 15.2596 92.2109 15.6676 92.1531 16.9473C92.0953 18.2236 91.8913 19.0964 91.5946 19.86C91.2935 20.6608 90.8214 21.3864 90.2113 21.9862C89.6113 22.5971 88.8858 23.0684 88.0862 23.3695C87.3226 23.6662 86.4498 23.8691 85.1735 23.928C83.8927 23.9869 83.4847 24 80.2251 24C76.9655 24 76.5575 23.9858 75.2778 23.928C74.0015 23.8702 73.1287 23.6662 72.3651 23.3695C71.5643 23.0683 70.8387 22.5963 70.2389 21.9862C69.6284 21.3869 69.156 20.6617 68.8546 19.8611C68.5589 19.0975 68.356 18.2247 68.2971 16.9484C68.2382 15.6665 68.2251 15.2585 68.2251 12C68.2251 8.74036 68.2393 8.33236 68.2971 7.05382C68.3549 5.77527 68.5589 4.90255 68.8546 4.13891C69.1564 3.33827 69.6292 2.61307 70.24 2.01382C70.839 1.40346 71.5638 0.931029 72.364 0.629455C73.1276 0.333818 74.0004 0.130909 75.2767 0.072H75.2778ZM85.0742 2.232C83.8087 2.17418 83.4291 2.16218 80.2251 2.16218C77.0211 2.16218 76.6415 2.17418 75.376 2.232C74.2055 2.28545 73.5706 2.48073 73.1473 2.64545C72.5876 2.86364 72.1873 3.12218 71.7673 3.54218C71.3691 3.92951 71.0627 4.40103 70.8706 4.92218C70.7058 5.34545 70.5106 5.98036 70.4571 7.15091C70.3993 8.41636 70.3873 8.796 70.3873 12C70.3873 15.204 70.3993 15.5836 70.4571 16.8491C70.5106 18.0196 70.7058 18.6545 70.8706 19.0778C71.0626 19.5982 71.3691 20.0705 71.7673 20.4578C72.1546 20.856 72.6269 21.1625 73.1473 21.3545C73.5706 21.5193 74.2055 21.7145 75.376 21.768C76.6415 21.8258 77.02 21.8378 80.2251 21.8378C83.4302 21.8378 83.8087 21.8258 85.0742 21.768C86.2447 21.7145 86.8796 21.5193 87.3029 21.3545C87.8626 21.1364 88.2629 20.8778 88.6829 20.4578C89.0811 20.0705 89.3876 19.5982 89.5796 19.0778C89.7444 18.6545 89.9396 18.0196 89.9931 16.8491C90.0509 15.5836 90.0629 15.204 90.0629 12C90.0629 8.796 90.0509 8.41636 89.9931 7.15091C89.9396 5.98036 89.7444 5.34545 89.5796 4.92218C89.3615 4.36255 89.1029 3.96218 88.6829 3.54218C88.2956 3.14408 87.824 2.83768 87.3029 2.64545C86.8796 2.48073 86.2447 2.28545 85.0742 2.232ZM78.6924 15.6993C79.5484 16.0556 80.5015 16.1037 81.389 15.8353C82.2765 15.567 83.0433 14.9988 83.5585 14.2279C84.0736 13.457 84.3052 12.5311 84.2135 11.6085C84.1219 10.6858 83.7127 9.82361 83.056 9.16909C82.6374 8.7507 82.1311 8.43034 81.5738 8.23107C81.0165 8.0318 80.4219 7.95857 79.8329 8.01667C79.2439 8.07477 78.6751 8.26274 78.1674 8.56705C77.6598 8.87136 77.2259 9.28445 76.8971 9.77656C76.5682 10.2687 76.3526 10.8276 76.2657 11.413C76.1787 11.9985 76.2227 12.596 76.3944 13.1624C76.5661 13.7288 76.8613 14.2501 77.2586 14.6888C77.656 15.1275 78.1456 15.4726 78.6924 15.6993ZM75.8636 7.63855C76.4364 7.06579 77.1164 6.61146 77.8647 6.30149C78.613 5.99151 79.4151 5.83197 80.2251 5.83197C81.0351 5.83197 81.8372 5.99151 82.5855 6.30148C83.3338 6.61146 84.0138 7.06579 84.5866 7.63855C85.1593 8.2113 85.6136 8.89126 85.9236 9.6396C86.2336 10.3879 86.3931 11.19 86.3931 12C86.3931 12.81 86.2336 13.6121 85.9236 14.3604C85.6136 15.1087 85.1593 15.7887 84.5866 16.3615C83.4298 17.5182 81.861 18.168 80.2251 18.168C78.5892 18.168 77.0204 17.5182 75.8636 16.3615C74.7069 15.2047 74.0571 13.6359 74.0571 12C74.0571 10.3641 74.7069 8.79527 75.8636 7.63855ZM87.7611 6.75055C87.903 6.61666 88.0167 6.45565 88.0952 6.27706C88.1738 6.09847 88.2158 5.90593 88.2186 5.71083C88.2215 5.51574 88.1852 5.32205 88.1118 5.14125C88.0385 4.96044 87.9296 4.79619 87.7916 4.65822C87.6536 4.52026 87.4894 4.41137 87.3086 4.33802C87.1278 4.26467 86.9341 4.22834 86.739 4.23118C86.5439 4.23403 86.3514 4.27599 86.1728 4.35458C85.9942 4.43317 85.8332 4.54679 85.6993 4.68873C85.4389 4.96476 85.2963 5.33141 85.3019 5.71083C85.3074 6.09026 85.4606 6.45259 85.7289 6.72092C85.9972 6.98924 86.3596 7.14243 86.739 7.14796C87.1184 7.15349 87.4851 7.01093 87.7611 6.75055Z" fill="#E27D60"/>
<path d="M53.2132 5.54778C53.1081 8.25029 51.4761 11.9474 48.3219 16.6444C45.0614 21.5481 42.2991 24 40.0386 24C38.6386 24 37.4558 22.5041 36.489 19.5216C35.8444 16.7818 35.201 14.0419 34.5496 11.3088C33.833 8.32628 33.0639 6.83037 32.2353 6.83037C32.0582 6.83037 31.4273 7.27035 30.3554 8.13696L29.2251 6.45039C30.4079 5.24247 31.5793 4.04387 32.729 2.83728C34.3061 1.25738 35.497 0.430759 36.2855 0.346764C38.1518 0.142776 39.3026 1.61469 39.7369 4.77983C40.2032 8.18762 40.5254 10.3128 40.7094 11.1394C41.2489 13.9713 41.8409 15.3832 42.4843 15.3832C42.9837 15.3832 43.7402 14.4659 44.7459 12.6287C45.7516 10.7915 46.2899 9.39555 46.3631 8.43827C46.507 6.8517 45.9688 6.06242 44.7459 6.06242C44.1745 6.06242 43.5825 6.21441 42.9711 6.51839C44.1482 2.04799 46.4019 -0.123874 49.7287 0.00545106C52.1938 0.0814465 53.3572 1.93333 53.2132 5.54645V5.54778Z" fill="#E27D60"/>
</svg>
